<svg width="18" height="18" viewBox="0 0 24 24" fill="none" xmlns="http://www.w3.org/2000/svg" class="stroke-[2] "><path d="M14.3 3.5H9.7C8.58438 3.5 8.02657 3.5 7.56622 3.61052C6.10362 3.96166 4.96166 5.10362 4.61052 6.56622C4.5 7.02657 4.5 7.58438 4.5 8.7V15.3C4.5 16.4156 4.5 16.9734 4.61052 17.4338C4.96166 18.8964 6.10362 20.0383 7.56622 20.3895C8.02657 20.5 8.58438 20.5 9.7 20.5H12.8461C13.3347 20.5 13.579 20.5 13.8133 20.4723C14.5459 20.3856 15.2402 20.098 15.8195 19.6413C16.0048 19.4952 16.1775 19.3225 16.523 18.977L17.977 17.523C18.3225 17.1775 18.4952 17.0048 18.6413 16.8195C19.098 16.2402 19.3856 15.5459 19.4723 14.8133C19.5 14.579 19.5 14.3347 19.5 13.8461V8.7C19.5 7.58438 19.5 7.02657 19.3895 6.56622C19.0383 5.10362 17.8964 3.96166 16.4338 3.61052C15.9734 3.5 15.4156 3.5 14.3 3.5Z" stroke="currentColor" stroke-linecap="square" stroke-linejoin="round"></path><path d="M14 20V17.5C14 16.1193 15.1193 15 16.5 15H19" stroke="currentColor"></path><path d="M9 7.99976H8V9.99976H9V7.99976ZM14 9.99976H15V7.99976H14V9.99976ZM9 8.99976V9.99976H14V8.99976V7.99976H9V8.99976Z" fill="currentColor"></path><path d="M9 11.9998H8V13.9998H9V11.9998ZM11 13.9998H12V11.9998H11V13.9998ZM9 12.9998V13.9998H11V12.9998V11.9998H9V12.9998Z" fill="currentColor"></path></svg>